<svg width="25" height="25" viewBox="0 0 25 25" fill="none" xmlns="http://www.w3.org/2000/svg">
<path d="M23.0628 13.0804C23.0628 12.2994 22.9927 11.5485 22.8625 10.8276H12.49V15.0878H18.4172C18.1618 16.4645 17.3859 17.6309 16.2195 18.4118V21.1752H19.7788C21.8613 19.2579 23.0628 16.4344 23.0628 13.0804Z" fill="#4285F4"/>
<path d="M12.49 23.8432C15.4636 23.8432 17.9566 22.857 19.7788 21.1749L16.2195 18.4116C15.2333 19.0724 13.9718 19.4629 12.49 19.4629C9.6215 19.4629 7.19355 17.5255 6.3275 14.9224H2.64804V17.7758C4.46024 21.3752 8.18476 23.8432 12.49 23.8432Z" fill="#34A853"/>
<path d="M6.32748 14.9223C6.10721 14.2615 5.98206 13.5557 5.98206 12.8298C5.98206 12.1039 6.10721 11.3981 6.32748 10.7373V7.88379H2.64801C1.87708 9.41851 1.47591 11.1123 1.47659 12.8298C1.47659 14.6069 1.90211 16.289 2.64801 17.7758L6.32748 14.9223Z" fill="#FBBC05"/>
<path d="M12.49 6.19672C14.1069 6.19672 15.5587 6.75239 16.7001 7.84372L19.8589 4.68489C17.9516 2.90773 15.4586 1.81641 12.49 1.81641C8.18476 1.81641 4.46024 4.2844 2.64804 7.88377L6.3275 10.7372C7.19355 8.13407 9.6215 6.19672 12.49 6.19672Z" fill="#EA4335"/>
</svg>
